<?xml version="1.0" encoding="iso-8859-1"?>
<!-- Generator: Adobe Illustrator 16.0.0, SVG Export Plug-In . SVG Version: 6.00 Build 0)  -->
<!DOCTYPE svg PUBLIC "-//W3C//DTD SVG 1.1//EN" "http://www.w3.org/Graphics/SVG/1.1/DTD/svg11.dtd">
<svg version="1.1" id="Capa_1" xmlns="http://www.w3.org/2000/svg" xmlns:xlink="http://www.w3.org/1999/xlink" x="0px" y="0px"
	 width="485.955px" height="485.956px" viewBox="0 0 485.955 485.956" style="enable-background:new 0 0 485.955 485.956;"
	 xml:space="preserve">
<g>
	<g>
		<path d="M483.629,230.503h-30.781v-42.197c0-18.886-32.252-59.701-33.623-61.428c-0.443-0.556-1.113-0.88-1.822-0.88
			c-0.711,0-1.383,0.325-1.824,0.88c-1.373,1.729-33.625,42.542-33.625,61.428v0.799h-97.016h-6.514v-42.197
			c0-18.885-32.251-59.699-33.623-61.427c-0.443-0.556-1.113-0.881-1.824-0.881s-1.381,0.325-1.823,0.881
			c-1.373,1.728-33.621,42.542-33.621,61.427v42.197h-6.515h-97.086v-0.799c0-18.886-32.251-59.701-33.625-61.428
			c-0.441-0.556-1.113-0.88-1.823-0.88c-0.709,0-1.38,0.325-1.822,0.88c-1.373,1.729-33.624,42.542-33.624,61.428v42.197H2.327
			c-1.285,0-2.327,1.042-2.327,2.328v36.063v32.211v36.063v41.275v7.314v13.271c0,1.284,1.044,2.326,2.327,2.326h99.345h99.346
			h17.954h7.449h33.11h7.451h17.955h99.344h99.346c1.283,0,2.328-1.042,2.328-2.326V385.76v-7.314V337.17v-36.063v-32.211v-36.063
			C485.955,231.545,484.91,230.503,483.629,230.503z M104.001,225.158v-31.396v-0.012h94.689v0.012v31.396v0.011h-6.232v-0.011
			h-4.655v0.011h-5.041v-0.011h-4.656v0.011h-5.04v-0.011h-4.656v0.011h-5.041v-0.011h-4.655v0.011h-5.041v-0.011h-4.656v0.011
			h-5.04v-0.011h-4.655v0.011h-5.041v-0.011h-4.656v0.011h-5.041v-0.011h-4.656v0.011h-5.04v-0.011h-4.656v0.011h-6.231V225.158
			L104.001,225.158z M104.001,229.826h94.689v14.645v12.908h-94.689V229.826L104.001,229.826z M104.001,262.038h94.69v4.529h-0.001
			h-94.689V262.038L104.001,262.038z M104.001,271.221h94.69v4.529h-0.001h-94.689V271.221L104.001,271.221z M104.001,280.407h94.69
			v18.373h-94.69V280.407z M68.484,132.126c1.056,1.381,2.519,3.315,4.231,5.651h-8.46
			C65.968,135.442,67.429,133.507,68.484,132.126z M60.897,142.433h15.177c1.863,2.625,3.871,5.531,5.9,8.591H54.997
			C57.026,147.964,59.034,145.058,60.897,142.433z M51.975,155.679h33.021c1.79,2.821,3.545,5.713,5.179,8.59H46.794
			C48.428,161.392,50.185,158.5,51.975,155.679z M44.261,168.927H92.71c1.544,2.966,2.898,5.86,3.975,8.59H40.287
			C41.362,174.787,42.717,171.893,44.261,168.927z M37.695,188.307c0-1.81,0.36-3.88,0.994-6.134h59.593
			c0.633,2.254,0.993,4.324,0.993,6.134v2.457h-61.58V188.307z M37.695,195.42h61.58v8.589h-61.58V195.42z M37.695,208.666h61.58
			v8.59h-61.58V208.666z M37.695,221.913h61.58v8.59h-61.58V221.913z M4.657,266.558v-31.4v-0.002h94.688v0.002v31.4v0.009h-6.231
			v-0.009h-4.656v0.009h-5.041v-0.009h-4.655v0.009h-5.04v-0.009h-4.656v0.009h-5.041v-0.009h-4.656v0.009h-5.041v-0.009h-4.656
			v0.009h-5.04v-0.009h-4.657v0.009h-5.04v-0.009h-4.656v0.009h-5.04v-0.009h-4.656v0.009h-5.04v-0.009h-4.658v0.009H4.657V266.558z
			 M4.656,271.221h94.689v27.557H4.656V271.221z M4.657,339.499h6.229v36.619H4.657V339.499z M99.345,396.704H4.656v-8.614h94.689
			V396.704L99.345,396.704z M99.345,383.433H4.656v-2.659h8.559h33.343h10.887h33.341h8.56L99.345,383.433L99.345,383.433z
			 M15.544,376.118v-36.619H44.23v36.619H15.544z M48.885,376.118v-36.619h6.232v36.619H48.885z M59.772,376.118v-36.619h28.686
			v36.619H59.772z M99.345,376.118h-6.231v-36.619h6.231V376.118z M198.692,396.704h-94.69v-8.614h94.69V396.704z M198.692,383.433
			h-94.69v-2.659h8.559h33.343h10.887h33.341h8.56V383.433z M104.001,376.118v-36.619h6.231v36.619H104.001z M114.888,376.118
			v-36.619h28.686v36.619H114.888z M148.231,376.118v-36.619h6.231v36.619H148.231z M159.117,376.118v-36.619h28.687v36.619H159.117
			z M192.459,376.118v-36.619h6.232v36.619H192.459z M198.694,334.842h-20.587h-5.04h-4.655h-5.041h-4.656h-1.926h-3.115h-4.656
			h-3.115h-1.926h-4.655h-5.041h-4.656h-5.04h-4.657h-5.04H4.658l0,0H4.657v-31.408h0.001h6.228h4.658h5.04h4.656h5.04h4.656h5.041
			h4.656h5.04h4.656h5.041h4.655h5.041h4.658h5.04h4.655h5.041h4.656h6.231h4.656h6.231h4.656h5.04h4.657h5.04h4.656h5.041h4.653
			h5.041h4.656h5.041h4.656h5.041h4.655h5.04h4.656h5.041h4.655h6.232h0.003V334.842L198.694,334.842z M242.977,90.729
			c1.058,1.381,2.519,3.316,4.229,5.652h-8.458C240.46,94.044,241.921,92.11,242.977,90.729z M235.39,101.037h15.178
			c1.861,2.624,3.867,5.53,5.898,8.59h-26.979C231.519,106.567,233.527,103.661,235.39,101.037z M226.467,114.283h33.023
			c1.789,2.821,3.543,5.712,5.18,8.59h-43.382C222.923,119.996,224.677,117.104,226.467,114.283z M218.754,127.53h48.449
			c1.543,2.966,2.898,5.859,3.975,8.59h-56.399C215.854,133.389,217.209,130.497,218.754,127.53z M213.182,140.776h59.591
			c0.635,2.252,0.994,4.325,0.994,6.135v2.456h-61.579v-2.456h-0.001C212.188,145.102,212.548,143.029,213.182,140.776z
			 M212.188,154.024h61.58v8.589h-61.58V154.024z M212.188,167.269h61.58v8.589h-61.58V167.269z M212.188,180.516h61.58v8.59h-61.58
			V180.516z M203.347,193.762h6.513h66.234h6.512v21.863h-23.07c-1.141-8.128-8.119-14.41-16.558-14.41s-15.417,6.282-16.557,14.41
			h-23.073V193.762z M216.644,396.702h-13.297v-10.607h13.297V396.702z M216.644,381.44h-13.297v-2.994V337.17v-30.229h13.297
			V381.44z M216.645,302.284h-13.298v-10.477h13.298V302.284z M257.203,396.702h-28.452v-89.761h28.452V396.702z M264.654,396.702
			h-2.793v-92.089c0-1.286-1.043-2.329-2.328-2.329h-33.111c-1.285,0-2.327,1.043-2.327,2.329v92.089H221.3V291.807h43.354V396.702z
			 M282.605,396.704h-13.295v-10.606h13.295V396.704z M282.605,378.446v2.994h-13.295v-74.499h13.295V378.446z M282.605,302.284
			h-13.295v-10.477h13.295V302.284z M282.607,287.153h-15.625h-48.01h-15.625v-4.292h79.26V287.153L282.607,287.153z
			 M282.607,278.147h-8.213h-4.656h-5.041h-4.652h-5.041h-4.656h-5.041h-4.656h-5.041h-4.656h-5.041h-4.655h-5.041h-4.656h-8.213
			v-31.346h8.213h4.656h5.041h4.655h5.041h4.656h5.041h4.656h5.041h4.656h5.041h4.652h5.041h4.656h8.213V278.147z M282.609,242.143
			h-79.262v-14.646v-7.217h25.221c1.287,0,2.328-1.041,2.328-2.328c0-6.66,5.42-12.08,12.083-12.08
			c6.662,0,12.083,5.42,12.083,12.08c0,1.287,1.039,2.328,2.326,2.328c0.041,0,0.078-0.009,0.117-0.011
			c0.037,0.002,0.074,0.011,0.113,0.011h24.99V242.143L282.609,242.143z M417.4,132.126c1.055,1.381,2.518,3.315,4.23,5.651h-8.461
			C414.883,135.442,416.344,133.507,417.4,132.126z M409.811,142.433h15.18c1.861,2.625,3.869,5.531,5.898,8.591h-26.977
			C405.941,147.964,407.949,145.058,409.811,142.433z M400.889,155.679h33.023c1.789,2.821,3.545,5.713,5.18,8.59h-43.381
			C397.344,161.392,399.1,158.5,400.889,155.679z M393.176,168.927h48.449c1.543,2.966,2.898,5.86,3.973,8.59h-56.396
			C390.275,174.787,391.633,171.893,393.176,168.927z M386.609,188.307c0-1.81,0.359-3.88,0.996-6.134h59.59
			c0.635,2.254,0.994,4.324,0.994,6.134v2.457h-61.58V188.307z M386.609,195.42h61.58v8.589h-61.58V195.42z M386.609,208.666h61.58
			v8.59h-61.58V208.666z M386.609,221.913h61.58v8.59h-61.58V221.913z M386.609,235.158h6.232h4.652h5.041h4.656h5.041h4.656h5.041
			h4.652h5.041h4.656h5.041h4.656h4.539h0.502h4.656h5.039h4.656h5.039h4.658h6.229v31.409h-6.229h-4.658h-5.039h-4.656h-5.039
			h-4.656h-5.041h-4.656h-5.041h-4.656h-5.041h-4.652h-5.041h-4.656h-5.041h-4.656h-5.041h-4.652h-6.232V235.158L386.609,235.158z
			 M287.266,218.058v-0.21v-24.085v-0.012h94.688v0.012v31.407h-6.23h-4.656h-5.039h-4.658h-5.039h-4.654h-5.041h-4.658h-5.041
			h-4.656h-5.039h-4.654h-5.041h-4.656h-5.039h-4.656h-5.041h-4.656h-6.229v-7.112H287.266z M287.264,229.826h94.688v27.553h-94.688
			V229.826z M287.264,262.038h94.688v4.529h-94.688V262.038z M287.264,271.221h94.688v4.529h-94.688V271.221z M287.264,289.481
			v-8.945v-0.061v-0.064h94.688v18.369h-94.688V289.481z M287.264,339.499h39.572v36.619h-39.572V339.499z M381.953,396.704h-94.688
			v-8.614h94.688V396.704z M381.953,383.433h-94.688v-2.659h41.9h10.887h33.342h8.559V383.433L381.953,383.433z M331.494,376.118
			v-36.619h6.23v36.619H331.494z M342.383,376.118v-36.619h28.684v36.619H342.383z M381.953,376.118h-6.23v-36.619h6.23V376.118z
			 M361.369,334.842h-5.041h-4.654h-5.041h-4.656h-1.924h-3.117h-4.656h-3.113h-1.926h-4.654h-5.041h-4.656h-5.039h-4.656h-5.041
			h-4.656h-6.23v-31.408h6.23h4.656h5.041h4.656h5.039h4.656h5.041h4.654h5.039h4.656h5.041h4.656h5.041h4.654h5.039h4.658h5.039
			h4.656h6.23h4.656h6.232h4.652h5.041h4.656h5.041h4.656h5.041h4.652h5.041h4.656h5.041h4.656h5.041h4.656h5.039h4.656h5.039h4.658
			h6.229v31.408h-6.229h-82.229h-6.23H361.369z M481.301,339.499v36.619h-6.23v-36.619H481.301z M470.412,339.499v36.619h-28.686
			v-36.619H470.412z M437.068,339.499v36.619h-6.229v-36.619H437.068z M426.182,339.499v36.619h-28.688v-36.619H426.182z
			 M392.842,339.499v36.619h-6.23v-36.619H392.842z M481.301,396.702h-94.691v-8.612h94.691V396.702z M481.301,383.433
			L481.301,383.433h-94.691v-2.659h8.561h33.342h10.887h33.344h8.561v2.659H481.301z M481.301,298.78L481.301,298.78h-94.691
			v-27.559h94.691V298.78z"/>
		<path d="M242.978,210.677c-4.656,0-8.444,3.789-8.444,8.444c0,4.657,3.788,8.445,8.444,8.445c4.655,0,8.444-3.788,8.444-8.445
			C251.422,214.465,247.633,210.677,242.978,210.677z M242.978,223.442c-2.382,0-4.321-1.938-4.321-4.321
			c0.001-2.381,1.939-4.32,4.321-4.32c2.381,0,4.32,1.938,4.32,4.32C247.299,221.505,245.359,223.442,242.978,223.442z"/>
	</g>
</g>
<g>
</g>
<g>
</g>
<g>
</g>
<g>
</g>
<g>
</g>
<g>
</g>
<g>
</g>
<g>
</g>
<g>
</g>
<g>
</g>
<g>
</g>
<g>
</g>
<g>
</g>
<g>
</g>
<g>
</g>
</svg>
