<svg id="Capa_1" enable-background="new 0 0 509.902 509.902" height="512" viewBox="0 0 509.902 509.902" width="512" xmlns="http://www.w3.org/2000/svg"><g id="XMLID_701_"><path id="XMLID_784_" d="m503.75 380.522c-3.934-9.505-9.583-18.083-16.791-25.493-25.791-26.526-40.305-62.141-41.075-100.589h39.616v-140.357h-69.104c-11.663-23.932-33.596-43.857-61.619-55.596-25.152-10.536-46.977-21.153-66.722-32.46-20.417-11.69-45.784-11.69-66.201 0-19.745 11.307-41.569 21.924-66.721 32.46-28.012 11.733-49.953 31.666-61.617 55.595h-69.114v140.357h39.616c-.77 38.447-15.284 74.063-41.077 100.592-14.794 15.224-22.941 35.294-22.941 56.514 0 21.65 8.434 42.014 23.756 57.351 15.328 15.313 35.692 23.747 57.342 23.747h347.706c44.718 0 81.098-36.38 81.098-81.098 0-10.75-2.071-21.193-6.152-31.023zm-337.026-294.364c26.301-11.018 49.211-22.17 70.039-34.097 11.052-6.329 25.333-6.329 36.385 0 20.827 11.926 43.737 23.079 70.039 34.097 15.696 6.574 28.77 16.298 37.953 27.925h-252.368c9.184-11.627 22.263-21.353 37.952-27.925zm-112.322 113.104h58.206v-30h-58.206v-25.179h401.098v25.179h-58.206v30h58.206v25.179h-401.098zm374.402 263.381h-347.706c-13.642 0-26.476-5.316-36.128-14.96-9.654-9.662-14.97-22.497-14.97-36.138 0-13.368 5.134-26.013 14.452-35.602 31.262-32.154 48.797-75.192 49.575-121.502h321.848c.778 46.31 18.313 89.348 49.577 121.504 4.546 4.674 8.105 10.074 10.584 16.064 2.565 6.18 3.866 12.753 3.866 19.536 0 28.175-22.922 51.098-51.098 51.098z"/><path id="XMLID_797_" d="m267.282 291.032-11.705-14.604-11.705 14.604c-.308.384-7.623 9.534-15.021 20.807-14.918 22.733-16.644 33.509-16.644 39.637 0 18.422 11.55 34.187 27.785 40.461v36.901h30v-36.467c16.846-5.957 28.952-22.035 28.952-40.895 0-6.128-1.725-16.903-16.643-39.636-7.397-11.273-14.712-20.424-15.019-20.808zm-11.705 34.768c7.566 11.3 13.145 21.738 13.368 25.711-.019 7.355-6.009 13.333-13.368 13.333-7.372 0-13.369-5.997-13.37-13.314.207-3.959 5.791-14.412 13.37-25.73z"/></g></svg>