<svg id="_x33_0" enable-background="new 0 0 64 64" height="512" viewBox="0 0 64 64" width="512" xmlns="http://www.w3.org/2000/svg"><g><path d="m33 35.184v-2.184h-2v2h-2v3c0 1.654 1.346 3 3 3 .551 0 1 .448 1 1v1h-1c-.551 0-1-.448-1-1v-1h-2v1c0 1.302.839 2.402 2 2.816v2.184h2v-2h2v-3c0-1.654-1.346-3-3-3-.551 0-1-.448-1-1v-1h1c.551 0 1 .448 1 1v1h2v-1c0-1.302-.839-2.402-2-2.816z"/><path d="m61 3h-24c0-1.103-.897-2-2-2h-6c-1.103 0-2 .897-2 2h-24c-1.103 0-2 .897-2 2v42c0 1.103.897 2 2 2h18.225l-4.909 9h5.066l2.58 5.159 6.683-12.252c.444.056.895.093 1.355.093s.911-.037 1.356-.093l6.683 12.252 2.579-5.159h5.066l-4.909-9h18.225c1.103 0 2-.897 2-2v-42c0-1.103-.897-2-2-2zm0 2v26h-22.695c-.415-.291-.851-.553-1.305-.786v-1.214h22v-22h-22v-2zm-18.051 36h18.051v2h-18.426c.183-.645.313-1.312.375-2zm0-2c-.062-.688-.192-1.355-.376-2h18.427v2zm-1.163-4c-.366-.714-.8-1.387-1.307-2h20.521v2zm15.214-22.101c-1.956-.399-3.5-1.943-3.899-3.899h3.899zm-5.92-3.899c.441 3.059 2.861 5.479 5.92 5.92v6.16c-3.059.441-5.479 2.861-5.92 5.92h-12.762c2.896-2.034 4.682-5.372 4.682-9s-1.786-6.966-4.682-9zm5.92 14.101v3.899h-3.899c.399-1.956 1.943-3.5 3.899-3.899zm-16-5.101c0 3.036-1.535 5.815-4 7.467v-14.934c2.465 1.652 4 4.431 4 7.467zm-6-15v26.426c-.955-.271-1.959-.426-3-.426s-2.045.155-3 .426v-26.426zm-28 20.101c1.956.399 3.5 1.943 3.899 3.899h-3.899zm5.92 3.899c-.441-3.059-2.861-5.479-5.92-5.92v-6.16c3.059-.441 5.479-2.861 5.92-5.92h12.761c-2.895 2.034-4.681 5.372-4.681 9s1.786 6.966 4.682 9zm-5.92-14.101v-3.899h3.899c-.399 1.956-1.943 3.5-3.899 3.899zm20 12.568c-2.465-1.652-4-4.431-4-7.467s1.535-5.815 4-7.467zm0-20.467v2h-22v22h22v1.214c-.454.233-.89.494-1.305.786h-22.695v-26zm-5.949 34h-18.051v-2h18.426c-.183.645-.313 1.313-.375 2zm0 2c.062.688.192 1.355.376 2h-18.427v-2zm1.163-6h-19.214v-2h20.521c-.507.613-.941 1.286-1.307 2zm-19.214 12v-2h19.214c.187.365.389.72.614 1.06l-.512.94zm21.039 11.841-1.421-2.841h-2.934l4.507-8.263c1.221 1.232 2.731 2.174 4.419 2.723zm-1.039-18.841c0-4.963 4.038-9 9-9s9 4.037 9 9-4.038 9-9 9-9-4.037-9-9zm18.382 16-1.42 2.841-4.572-8.381c1.687-.548 3.198-1.49 4.419-2.723l4.506 8.263zm.302-9-.513-.94c.225-.34.427-.695.614-1.06h19.215v2z"/></g></svg>