<svg height="512" viewBox="0 0 59 60" width="512" xmlns="http://www.w3.org/2000/svg"><g id="Page-1" fill="none" fill-rule="evenodd"><g id="008---Pesticide" fill-rule="nonzero"><path id="Shape" d="m8 60c-4.41622192-.0049599-7.99504012-3.5837781-8-8v-10c.11917284-3.6740268 1.66094752-7.158079 4.3-9.717.25615943-.2500859.62627975-.3445154.97094023-.2477178s.61149898.3701165.70000001.717c.08850104.3468835-.0147808.7146319-.27094024.9647178-2.25813886 2.1785851-3.58429917 5.147392-3.7 8.283v10c-.00000005 2.1435936 1.14359348 4.1243557 2.99999996 5.1961525s4.1435936 1.0717968 6.00000004 0c1.8564065-1.0717968 3-3.0525589 3-5.1961525v-37.5c0-2.3222264 1.2388929-4.468052 3.25-5.62916524 2.011107-1.1611132 4.488893-1.1611132 6.5 0 2.0111071 1.16111324 3.25 3.30693884 3.25 5.62916524v3.5c0 .5522847-.4477153 1-1 1s-1-.4477153-1-1v-3.5c0-2.4852814-2.0147186-4.5-4.5-4.5s-4.5 2.0147186-4.5 4.5v37.5c0 4.418278-3.581722 8-8 8z" fill="#7f8c8d"/><path id="Shape" d="m28 21v-4c0-.5522847-.4477153-1-1-1h-2c-.5522847 0-1 .4477153-1 1v4.58z" fill="#95a5a5"/><path id="Shape" d="m44 0h-10c-1.1045695 0-2 .8954305-2 2v1c.0066473 3.47561987 2.5603905 6.42093699 6 6.92v3.08c0 .5522847.4477153 1 1 1s1-.4477153 1-1v-3.08c3.4396095-.49906301 5.9933527-3.44438013 6-6.92v-1c0-1.1045695-.8954305-2-2-2zm0 3c0 2.76142375-2.2385763 5-5 5s-5-2.23857625-5-5v-1h10z" fill="#7f8c8d"/><path id="Shape" d="m9 23c-.55228475 0-1-.4477153-1-1v-15.586l-4.707-4.707c-.37897221-.39237889-.37355237-1.01608478.01218142-1.40181857.3857338-.3857338 1.00943969-.39115364 1.40181858-.01218143l5 5c.18754937.18749273.29294336.44180519.293.707v16c0 .5522847-.44771525 1-1 1z" fill="#95a5a5"/><path id="Shape" d="m8 25h-1c-.147 0-3.633-.029-4.895-2.553-.24687128-.4942949-.04629485-1.0951287.448-1.342s1.09512872-.0462949 1.342.448c.705 1.407 3.082 1.447 3.105 1.447h1c.55228475 0 1 .4477153 1 1s-.44771525 1-1 1z" fill="#95a5a5"/><path id="Shape" d="m27 21h24c4.418278 0 8 3.581722 8 8v26c0 2.209139-1.790861 4-4 4h-32c-2.209139 0-4-1.790861-4-4v-26c0-4.418278 3.581722-8 8-8z" fill="#35495e"/><path id="Shape" d="m33 17h12c.5522847 0 1 .4477153 1 1v3h-14v-3c0-.5522847.4477153-1 1-1z" fill="#7f8c8d"/><path id="Shape" d="m35 13h8c.5522847 0 1 .4477153 1 1v3h-10v-3c0-.5522847.4477153-1 1-1z" fill="#95a5a5"/><path id="Rectangle-path" d="m19 30h40v22h-40z" fill="#e64c3c"/><path id="Shape" d="m10 20h-2c-.55228475 0-1 .4477153-1 1v6.592c-.00005664.2651948-.10545063.5195073-.293.707l-3 3c-.39038194.3904999-.39038194 1.0235001 0 1.414l1.414 1.414c.18756826.187777.44209075.2932867.7075.2932867s.51993174-.1055097.7075-.2932867l1.834-1.834c.18749273-.1875494.44180519-.2929434.707-.293h.923c.5522847 0 1-.4477153 1-1v-10c0-.5522847-.4477153-1-1-1z" fill="#e64c3c"/><path id="Shape" d="m44.673 35.367c-.007-.008-.009-.017-.016-.024s-.016-.009-.024-.016c-3.131554-3.0657449-8.1474654-3.0391137-11.2462896.0597104-3.0988241 3.0988242-3.1254553 8.1147356-.0597104 11.2462896.007.008.009.017.016.024s.016.009.024.016c3.131554 3.0657449 8.1474654 3.0391137 11.2462896-.0597104 3.0988241-3.0988242 3.1254553-8.1147356.0597104-11.2462896zm-5.673-.367c1.2450511.0000591 2.4588346.3899665 3.471 1.115l-8.356 8.356c-1.304941-1.8273992-1.4782256-4.2311586-.4488863-6.2268337 1.0293394-1.9956752 3.0883922-3.2480284 5.3338863-3.2441663zm0 12c-1.2450511-.0000591-2.4588346-.3899665-3.471-1.115l8.356-8.356c1.304941 1.8273992 1.4782256 4.2311586.4488863 6.2268337-1.0293394 1.9956752-3.0883922 3.2480284-5.3338863 3.2441663z" fill="#ecf0f1"/></g></g></svg>