<svg id="Capa_1" enable-background="new 0 0 508.583 508.583" height="512" viewBox="0 0 508.583 508.583" width="512" xmlns="http://www.w3.org/2000/svg"><g><path d="m469.888 153.791c-3.144 0-6.232.371-9.237 1.105-6.257-9.483-15.562-16.446-26.395-19.798 1.566-6.164 2.357-12.499 2.357-18.924 0-12.224-2.792-23.922-8.298-34.768-1.874-3.694-6.391-5.168-10.082-3.293-3.694 1.875-5.168 6.389-3.293 10.083 4.428 8.723 6.673 18.136 6.673 27.979 0 7.507-1.34 14.861-3.983 21.858-.814 2.154-.594 4.562.598 6.532s3.222 3.284 5.507 3.563c11.656 1.426 21.637 8.563 26.696 19.092 1.756 3.651 6.093 5.249 9.795 3.609 3.056-1.352 6.307-2.038 9.662-2.038 13.065 0 23.695 10.513 23.695 23.435s-10.63 23.435-23.695 23.435h-21.153c-6.43-23.406-28.019-40.668-53.605-40.668-12.398 0-24.392 4.146-34.07 11.596-7.925-10.008-20.171-16.112-33.307-16.122-7.149-26.767-31.977-46.181-60.432-46.181-12.125 0-23.815 3.454-33.838 9.879-3.615-8.779-8.706-16.709-14.924-23.554 8.337-11.446 21.784-18.392 36.214-18.392 11.382 0 22.228 4.253 30.537 11.975 1.934 1.797 4.669 2.447 7.207 1.705 2.535-.74 4.494-2.759 5.157-5.314 7.152-27.545 32.228-46.782 60.979-46.782 14.789 0 29.16 5.18 40.465 14.586 3.183 2.648 7.912 2.216 10.563-.969 2.649-3.184 2.216-7.913-.969-10.562-13.994-11.643-31.771-18.055-50.059-18.055-31.84 0-60.048 19.102-71.983 47.594-9.476-5.97-20.485-9.177-31.896-9.177-18.681 0-36.151 8.724-47.346 23.214-13.905-10.534-31.208-16.672-49.685-16.672-14.188 0-28.169 3.663-40.432 10.592-3.606 2.038-4.878 6.613-2.84 10.219s6.613 4.877 10.22 2.84c10.016-5.659 21.445-8.651 33.052-8.651 30.516 0 57.13 20.419 64.722 49.656.664 2.556 2.623 4.575 5.158 5.314 2.535.741 5.272.092 7.207-1.705 8.842-8.217 20.381-12.742 32.492-12.742 23.461 0 43.672 17.315 47.013 40.275.291 2 1.377 3.799 3.013 4.987 1.635 1.188 3.678 1.667 5.674 1.326 1.577-.27 3.158-.406 4.698-.406 10.702 0 20.486 6.234 24.928 15.883 1.051 2.285 3.178 3.89 5.664 4.275 2.48.386 4.999-.501 6.692-2.36 7.686-8.435 18.666-13.272 30.127-13.272 22.368 0 40.565 18.018 40.565 40.165 0 21.395-16.887 39.013-38.443 40.11-.202.01-.4.029-.598.054h-60.375l.724-1.243c2.284-3.922 2.297-8.803.035-12.738s-6.486-6.379-11.025-6.379h-34.078l10.501-68.257c.94-6.117-2.475-11.838-8.304-13.914-5.832-2.077-12.092.201-15.229 5.535l-57.025 96.996h-181.472c-14.01.001-25.407-11.274-25.407-25.132s11.397-25.132 25.407-25.132c3.598 0 7.083.735 10.358 2.185 3.702 1.64 8.04.042 9.795-3.61 5.374-11.182 15.952-18.775 28.317-20.344.053-.005.104-.005.157-.011 1.479-.179 2.992-.27 4.494-.27 12.799 0 24.447 6.458 31.16 17.276 1.262 2.034 3.42 3.344 5.807 3.524 2.394.184 4.717-.789 6.271-2.61 5.224-6.122 12.852-9.632 20.929-9.632 15.099 0 27.382 12.153 27.382 27.091 0 4.142 3.358 7.5 7.5 7.5s7.5-3.358 7.5-7.5c0-23.209-19.012-42.091-42.382-42.091-9.364 0-18.341 3.06-25.653 8.59-9.691-10.867-23.546-17.148-38.514-17.148-.027 0-.054.002-.081.002-1.674-5.853-2.53-11.899-2.53-18.044 0-15.086 4.988-29.295 14.424-41.089 2.587-3.234 2.063-7.954-1.171-10.542-3.233-2.588-7.954-2.064-10.542 1.171-11.587 14.482-17.711 31.931-17.711 50.46 0 6.874.863 13.652 2.572 20.24-11.59 3.491-21.536 10.917-28.155 21.075-3.227-.814-6.546-1.224-9.928-1.224-22.28.001-40.406 18.004-40.406 40.133s18.126 40.132 40.407 40.132h64.713l-.27.517c-1.918 3.671-.498 8.202 3.173 10.121 1.109.58 2.297.854 3.467.854 2.703 0 5.314-1.466 6.653-4.028l3.901-7.465h49.527l-.27.517c-1.918 3.671-.498 8.202 3.173 10.121 1.109.58 2.297.854 3.468.854 2.703 0 5.314-1.466 6.653-4.028l3.901-7.465h24.564l-1.173 1.995c-2.306 3.922-2.335 8.812-.076 12.761s6.489 6.402 11.039 6.402h35.566l-10.881 67.363c-.993 6.146 2.406 11.903 8.267 14.002 1.454.521 2.935.771 4.387.771 4.398 0 8.534-2.299 10.89-6.344l56.466-96.95h39.905l-.27.517c-1.918 3.671-.497 8.202 3.174 10.121 1.109.58 2.297.854 3.468.854 2.703 0 5.314-1.466 6.653-4.028l3.9-7.464h13.259c.484 0 .958-.047 1.417-.136 28.875-1.998 51.373-25.709 51.633-54.525h19.205c21.337 0 38.695-17.242 38.695-38.435-.001-21.191-17.359-38.433-38.696-38.433zm-178.053 27.138c-.002.003-.003.005-.005.007zm-27.532 183.174 9.349-57.877c.596-3.686-.451-7.43-2.871-10.273-2.421-2.843-5.95-4.473-9.684-4.473h-34.257l58.96-100.287-9.095 59.118c-.564 3.672.499 7.395 2.918 10.215s5.937 4.437 9.651 4.437h32.769z"/><path d="m98.449 314.279c-3.671-1.918-8.203-.498-10.121 3.174l-6.077 11.629c-1.918 3.671-.498 8.202 3.173 10.121 1.109.58 2.297.854 3.467.854 2.703 0 5.315-1.466 6.653-4.028l6.077-11.629c1.92-3.672.499-8.203-3.172-10.121z"/><path d="m75.85 357.52c-3.669-1.919-8.202-.498-10.121 3.173l-6.078 11.629c-1.918 3.671-.498 8.202 3.173 10.121 1.109.58 2.297.854 3.467.854 2.703 0 5.314-1.466 6.653-4.028l6.078-11.629c1.92-3.67.499-8.202-3.172-10.12z"/><path d="m53.251 400.761c-3.67-1.919-8.202-.498-10.121 3.173l-6.078 11.629c-1.918 3.671-.498 8.202 3.173 10.121 1.109.58 2.297.854 3.467.854 2.703 0 5.314-1.466 6.653-4.028l6.078-11.629c1.92-3.67.5-8.201-3.172-10.12z"/><path d="m30.653 444.002c-3.67-1.919-8.202-.498-10.121 3.173l-6.078 11.629c-1.918 3.671-.498 8.202 3.173 10.121 1.109.58 2.297.854 3.467.854 2.703 0 5.314-1.466 6.653-4.028l6.078-11.629c1.92-3.67.499-8.201-3.172-10.12z"/><path d="m155.343 340.056c2.703 0 5.314-1.466 6.653-4.028l6.078-11.629c1.918-3.671.498-8.202-3.173-10.121-3.67-1.919-8.202-.498-10.121 3.173l-6.078 11.629c-1.918 3.671-.498 8.202 3.173 10.121 1.109.581 2.297.855 3.468.855z"/><path d="m142.302 357.52c-3.67-1.919-8.202-.498-10.121 3.173l-6.078 11.629c-1.918 3.671-.498 8.202 3.173 10.121 1.109.58 2.297.854 3.467.854 2.703 0 5.314-1.466 6.653-4.028l6.078-11.629c1.92-3.67.499-8.202-3.172-10.12z"/><path d="m119.703 400.761c-3.669-1.919-8.202-.498-10.121 3.173l-6.078 11.629c-1.918 3.671-.498 8.202 3.173 10.121 1.109.58 2.297.854 3.467.854 2.703 0 5.314-1.466 6.653-4.028l6.078-11.629c1.92-3.67.5-8.201-3.172-10.12z"/><path d="m97.104 444.002c-3.671-1.918-8.203-.497-10.121 3.174l-6.077 11.629c-1.918 3.671-.498 8.202 3.173 10.121 1.109.58 2.297.854 3.467.854 2.703 0 5.315-1.466 6.653-4.028l6.077-11.629c1.92-3.671.499-8.202-3.172-10.121z"/><path d="m220.657 340.056c2.703 0 5.314-1.466 6.653-4.028l6.078-11.629c1.918-3.671.498-8.202-3.173-10.121-3.669-1.919-8.202-.498-10.121 3.173l-6.078 11.629c-1.918 3.671-.498 8.202 3.173 10.121 1.109.58 2.297.855 3.468.855z"/><path d="m207.616 357.52c-3.67-1.919-8.203-.498-10.121 3.173l-6.078 11.629c-1.918 3.671-.498 8.202 3.173 10.121 1.109.58 2.297.854 3.467.854 2.703 0 5.314-1.466 6.653-4.028l6.078-11.629c1.92-3.671.499-8.202-3.172-10.12z"/><path d="m185.017 400.761c-3.669-1.919-8.202-.498-10.121 3.173l-6.078 11.629c-1.918 3.671-.498 8.202 3.173 10.121 1.109.58 2.297.854 3.467.854 2.703 0 5.314-1.466 6.653-4.028l6.078-11.629c1.92-3.671.499-8.202-3.172-10.12z"/><path d="m162.418 444.002c-3.67-1.919-8.202-.498-10.121 3.173l-6.078 11.629c-1.918 3.671-.498 8.202 3.173 10.121 1.109.58 2.297.854 3.467.854 2.703 0 5.314-1.466 6.653-4.028l6.078-11.629c1.92-3.67.5-8.202-3.172-10.12z"/><path d="m250.379 396.533c-3.67-1.919-8.202-.498-10.121 3.173l-6.078 11.629c-1.918 3.671-.498 8.202 3.173 10.121 1.109.58 2.297.854 3.467.854 2.703 0 5.314-1.466 6.653-4.028l6.078-11.629c1.921-3.67.5-8.201-3.172-10.12z"/><path d="m227.781 439.774c-3.669-1.919-8.202-.498-10.121 3.173l-6.078 11.629c-1.918 3.671-.498 8.202 3.173 10.121 1.109.58 2.297.854 3.467.854 2.703 0 5.314-1.466 6.653-4.028l6.078-11.629c1.92-3.67.499-8.201-3.172-10.12z"/><path d="m360.778 314.278c-3.667-1.917-8.2-.498-10.12 3.173l-6.078 11.629c-1.919 3.671-.499 8.202 3.173 10.121 1.108.58 2.297.854 3.468.854 2.703 0 5.313-1.466 6.652-4.027l6.078-11.629c1.919-3.671.499-8.202-3.173-10.121z"/><path d="m338.18 357.52c-3.666-1.917-8.201-.498-10.12 3.173l-6.078 11.629c-1.919 3.671-.499 8.202 3.173 10.121 1.108.58 2.297.854 3.468.854 2.703 0 5.313-1.466 6.652-4.027l6.078-11.629c1.918-3.672.499-8.203-3.173-10.121z"/><path d="m315.581 400.761c-3.667-1.918-8.201-.498-10.12 3.173l-6.078 11.629c-1.919 3.671-.499 8.202 3.173 10.121 1.108.58 2.297.854 3.468.854 2.703 0 5.313-1.466 6.652-4.027l6.078-11.629c1.919-3.671.499-8.203-3.173-10.121z"/><path d="m292.982 444.002c-3.666-1.917-8.201-.498-10.12 3.173l-6.078 11.629c-1.919 3.671-.499 8.202 3.173 10.121 1.108.58 2.297.854 3.468.854 2.703 0 5.313-1.466 6.652-4.027l6.078-11.629c1.919-3.671.499-8.202-3.173-10.121z"/></g></svg>